<svg xmlns="http://www.w3.org/2000/svg" viewBox="0 0 698 400"><g fill="none" stroke-width="2"><path stroke="#e4f5f6" d="M12.23 183.14q-2.79 22.7-.78 41.92c7.63 72.65 61.1 134.29 133.44 149.22 17.11 3.53 33.38 5.01 50.91 3.29q32.32-3.16 59.69-16.89" vector-effect="non-scaling-stroke"/><path stroke="#b393cb" d="M255.49 360.68c123.86-49.63 144.48-213.16 39.47-293.91q-2.4-1.85-7.08-4.82" vector-effect="non-scaling-stroke"/><path stroke="#80d4ea" d="M287.88 61.95c-62.84-48.84-148.47-48.77-210.98-.37-38.22 29.59-60.58 73.29-64.67 121.56" vector-effect="non-scaling-stroke"/><path stroke="#3468b6" d="M287.88 61.95q-2.51-.42-4.97-1.14c-10.44-3.05-21.41-3.43-32.17-1.8q-35.46 5.38-59.41 31.82c-14.59 16.11-22.82 34.41-29.41 55.1q-1.22 3.83-1.57 5.8" vector-effect="non-scaling-stroke"/><path stroke="#80d4ea" d="M160.35 151.73c-8.91 31.22-9.73 64.63-6.61 96.77" vector-effect="non-scaling-stroke"/><path stroke="#64c9e0" d="M153.74 248.5q-.08.36-.45.45c-19.24 4.84-38.92 7.58-58.66 4.95-39.51-5.26-72.41-31.54-82.4-70.76" vector-effect="non-scaling-stroke"/><path stroke="#9889c2" d="M255.49 360.68q18.64-17.97 24.78-42.21c10.91-43.07-8.1-83.02-39.22-112.74" vector-effect="non-scaling-stroke"/><path stroke="#b393cb" d="M241.05 205.73c-22.84-23.18-50.82-41.05-80.7-54" vector-effect="non-scaling-stroke"/><path stroke="#e4f5f6" d="M241.05 205.73q-39.26 29.63-86.56 42.97-.3.09-.75-.2" vector-effect="non-scaling-stroke"/><path stroke="#b393cb" d="M544.485 170.757a.52.52 0 0 0-.522-.518l-6.46.022a.52.52 0 0 0-.518.522l.03 8.46a.52.52 0 0 0 .522.518l6.46-.022a.52.52 0 0 0 .518-.522l-.03-8.46M414.92 203.26q-5.9-.09-11.78.13c-10.18.37-18.89 6.21-16.7 17.69 2.44 12.83 21.52 13.48 28.03 4.09a.57.56-27.7 0 1 1.03.32v4.37q0 .62.61.62l6.26.05q.51.01.52-.5.4-20.1-.02-26.59c-1.23-18.95-19.99-19.64-33.47-14.15a.63.63 0 0 0-.39.58l-.01 5.34q-.01.61.53.34c7.67-3.91 26.28-7.25 25.9 7.22q-.01.5-.51.49M444.6 225.32a.29.29 0 0 1 .51-.19q8.69 9.72 19.67 4.97c13.81-5.99 13.71-30.13 4.32-39.54-6.8-6.8-17.89-5.25-23.52 2.05a.6.6 0 0 1-1.08-.37v-4.36q0-.63-.62-.63H438a1 1 0 0 0-1 1v57.5q0 .75.75.75h6.23q.47 0 .48-.48l.14-20.7M494.5 192.5v-4.56q0-.55-.55-.57l-5.78-.17a1.14 1.14 0 0 0-1.17 1.14V246q0 .5.5.5h6.5q.5 0 .5-.5v-20.52q0-.82.59-.25c1.81 1.78 3.56 3.64 5.7 4.7 11.98 5.93 22.08-3.21 24.21-14.68q1.86-10.03-1.95-18.63c-4.46-10.08-15.68-13.81-24.8-6.94-1 .76-2.04 2.19-3.2 3.09q-.55.42-.55-.27M616 192.71v-4.84q0-.62-.63-.62h-6.24q-.63 0-.63.63v41.98q0 .61.61.61l6.42.09q.48 0 .48-.48-.04-11.72.02-23.41.03-4.7.95-7.06c3.8-9.78 18.29-10.82 18.72 1.4q.51 14.43-.07 28.52a.96.96 0 0 0 .97 1l6.18-.05a.52.52 0 0 0 .52-.53q-.15-12.26-.06-24.51c.1-14.44 19.29-20.19 19.78-2.68q.38 13.58.19 27.19 0 .55.54.55h6.47q.48 0 .48-.48.18-22.29-.01-27.97c-.36-10.93-8.4-18.97-19.57-14.69-3.61 1.38-6.22 4.24-8.74 7.24a.43.43 0 0 1-.73-.13c-4.15-11.48-18.58-9.8-24.96-1.52a.39.38 63.9 0 1-.69-.24M544.5 187.69a.43.43 0 0 0-.43-.43h-6.64a.43.43 0 0 0-.43.43v42.38a.43.43 0 0 0 .43.43h6.64a.43.43 0 0 0 .43-.43v-42.38M587 225.49v4.26q0 .75.75.75h5.85q.65 0 .65-.66v-42.09q0-.5-.5-.5h-6.25q-.54 0-.54.54.16 20.16-.05 25.51-.44 10.9-10.24 12.54c-9.11 1.52-10.47-6.78-10.56-13.4q-.16-12.33-.1-24.67 0-.52-.52-.52h-6.2q-.55 0-.55.55-.04 12.83-.24 25.66c-.13 8.26 3.28 16.85 12.28 18.02q9.2 1.18 15.32-6.31a.51.51 0 0 1 .9.32" vector-effect="non-scaling-stroke"/><path stroke="#b393cb" d="M397.36 211.04c-12.14 8.02 6.64 23.38 15.56 9.12q2.69-4.3 2.48-10.55-.02-.49-.52-.52c-4.72-.29-13.22-.9-17.52 1.95M456.35 226.22a17.27 11.94 90.1 0 0 11.97-17.25 17.27 11.94 90.1 0 0-11.91-17.29 17.27 11.94 90.1 0 0-11.97 17.25 17.27 11.94 90.1 0 0 11.91 17.29M513.36 194.82c-6.89-6.93-16.21-1.13-18.14 7.63-1.42 6.48-.85 19.56 6.52 22.57 17.11 6.98 20.18-21.59 11.62-30.2" vector-effect="non-scaling-stroke"/></g><path fill="#fff" d="M0 0h698v400H0V0Zm12.23 183.14q-2.79 22.7-.78 41.92c7.63 72.65 61.1 134.29 133.44 149.22 17.11 3.53 33.38 5.01 50.91 3.29q32.32-3.16 59.69-16.89c123.86-49.63 144.48-213.16 39.47-293.91q-2.4-1.85-7.08-4.82c-62.84-48.84-148.47-48.77-210.98-.37-38.22 29.59-60.58 73.29-64.67 121.56Zm532.255-12.383a.52.52 0 0 0-.522-.518l-6.46.022a.52.52 0 0 0-.518.522l.03 8.46a.52.52 0 0 0 .522.518l6.46-.022a.52.52 0 0 0 .518-.522l-.03-8.46ZM414.92 203.26q-5.9-.09-11.78.13c-10.18.37-18.89 6.21-16.7 17.69 2.44 12.83 21.52 13.48 28.03 4.09a.57.56-27.7 0 1 1.03.32v4.37q0 .62.61.62l6.26.05q.51.01.52-.5.4-20.1-.02-26.59c-1.23-18.95-19.99-19.64-33.47-14.15a.63.63 0 0 0-.39.58l-.01 5.34q-.01.61.53.34c7.67-3.91 26.28-7.25 25.9 7.22q-.01.5-.51.49Zm29.68 22.06a.29.29 0 0 1 .51-.19q8.69 9.72 19.67 4.97c13.81-5.99 13.71-30.13 4.32-39.54-6.8-6.8-17.89-5.25-23.52 2.05a.6.6 0 0 1-1.08-.37v-4.36q0-.63-.62-.63H438a1 1 0 0 0-1 1v57.5q0 .75.75.75h6.23q.47 0 .48-.48l.14-20.7Zm49.9-32.82v-4.56q0-.55-.55-.57l-5.78-.17a1.14 1.14 0 0 0-1.17 1.14V246q0 .5.5.5h6.5q.5 0 .5-.5v-20.52q0-.82.59-.25c1.81 1.78 3.56 3.64 5.7 4.7 11.98 5.93 22.08-3.21 24.21-14.68q1.86-10.03-1.95-18.63c-4.46-10.08-15.68-13.81-24.8-6.94-1 .76-2.04 2.19-3.2 3.09q-.55.42-.55-.27Zm121.5.21v-4.84q0-.62-.63-.62h-6.24q-.63 0-.63.63v41.98q0 .61.61.61l6.42.09q.48 0 .48-.48-.04-11.72.02-23.41.03-4.7.95-7.06c3.8-9.78 18.29-10.82 18.72 1.4q.51 14.43-.07 28.52a.96.96 0 0 0 .97 1l6.18-.05a.52.52 0 0 0 .52-.53q-.15-12.26-.06-24.51c.1-14.44 19.29-20.19 19.78-2.68q.38 13.58.19 27.19 0 .55.54.55h6.47q.48 0 .48-.48.18-22.29-.01-27.97c-.36-10.93-8.4-18.97-19.57-14.69-3.61 1.38-6.22 4.24-8.74 7.24a.43.43 0 0 1-.73-.13c-4.15-11.48-18.58-9.8-24.96-1.52a.39.38 63.9 0 1-.69-.24Zm-71.5-5.02a.43.43 0 0 0-.43-.43h-6.64a.43.43 0 0 0-.43.43v42.38a.43.43 0 0 0 .43.43h6.64a.43.43 0 0 0 .43-.43v-42.38Zm42.5 37.8v4.26q0 .75.75.75h5.85q.65 0 .65-.66v-42.09q0-.5-.5-.5h-6.25q-.54 0-.54.54.16 20.16-.05 25.51-.44 10.9-10.24 12.54c-9.11 1.52-10.47-6.78-10.56-13.4q-.16-12.33-.1-24.67 0-.52-.52-.52h-6.2q-.55 0-.55.55-.04 12.83-.24 25.66c-.13 8.26 3.28 16.85 12.28 18.02q9.2 1.18 15.32-6.31a.51.51 0 0 1 .9.32Z"/><path fill="#00a8d4" d="M287.88 61.95q-2.51-.42-4.97-1.14c-10.44-3.05-21.41-3.43-32.17-1.8q-35.46 5.38-59.41 31.82c-14.59 16.11-22.82 34.41-29.41 55.1q-1.22 3.83-1.57 5.8c-8.91 31.22-9.73 64.63-6.61 96.77q-.08.36-.45.45c-19.24 4.84-38.92 7.58-58.66 4.95-39.51-5.26-72.41-31.54-82.4-70.76 4.09-48.27 26.45-91.97 64.67-121.56 62.51-48.4 148.14-48.47 210.98.37Z"/><path fill="#672797" d="M287.88 61.95q4.68 2.97 7.08 4.82c105.01 80.75 84.39 244.28-39.47 293.91q18.64-17.97 24.78-42.21c10.91-43.07-8.1-83.02-39.22-112.74-22.84-23.18-50.82-41.05-80.7-54q.35-1.97 1.57-5.8c6.59-20.69 14.82-38.99 29.41-55.1q23.95-26.44 59.41-31.82c10.76-1.63 21.73-1.25 32.17 1.8q2.46.72 4.97 1.14Z"/><path fill="#fff" d="M160.35 151.73c29.88 12.95 57.86 30.82 80.7 54q-39.26 29.63-86.56 42.97-.3.09-.75-.2c-3.12-32.14-2.3-65.55 6.61-96.77Z"/><rect width="7.5" height="9.5" x="-3.75" y="-4.75" fill="#672797" rx=".52" transform="rotate(-.2 50404.131 -154825.807)"/><path fill="#c8eaec" d="M12.23 183.14c9.99 39.22 42.89 65.5 82.4 70.76 19.74 2.63 39.42-.11 58.66-4.95q.37-.09.45-.45.45.29.75.2 47.3-13.34 86.56-42.97c31.12 29.72 50.13 69.67 39.22 112.74q-6.14 24.24-24.78 42.21-27.37 13.73-59.69 16.89c-17.53 1.72-33.8.24-50.91-3.29-72.34-14.93-125.81-76.57-133.44-149.22q-2.01-19.22.78-41.92Z"/><path fill="#672797" d="M415.43 202.77c.38-14.47-18.23-11.13-25.9-7.22q-.54.27-.53-.34l.01-5.34a.63.63 0 0 1 .39-.58c13.48-5.49 32.24-4.8 33.47 14.15q.42 6.49.02 26.59-.01.51-.52.5l-6.26-.05q-.61 0-.61-.62v-4.37a.57.56-27.7 0 0-1.03-.32c-6.51 9.39-25.59 8.74-28.03-4.09-2.19-11.48 6.52-17.32 16.7-17.69q5.88-.22 11.78-.13.5.01.51-.49Zm-18.07 8.27c-12.14 8.02 6.64 23.38 15.56 9.12q2.69-4.3 2.48-10.55-.02-.49-.52-.52c-4.72-.29-13.22-.9-17.52 1.95ZM444.6 225.32l-.14 20.7q-.01.48-.48.48h-6.23q-.75 0-.75-.75v-57.5a1 1 0 0 1 1-1h5.88q.62 0 .62.63v4.36a.6.6 0 0 0 1.08.37c5.63-7.3 16.72-8.85 23.52-2.05 9.39 9.41 9.49 33.55-4.32 39.54q-10.98 4.75-19.67-4.97a.29.29 0 0 0-.51.19Zm11.75.9a17.27 11.94 90.1 0 0 11.97-17.25 17.27 11.94 90.1 0 0-11.91-17.29 17.27 11.94 90.1 0 0-11.97 17.25 17.27 11.94 90.1 0 0 11.91 17.29ZM495.05 192.77c1.16-.9 2.2-2.33 3.2-3.09 9.12-6.87 20.34-3.14 24.8 6.94q3.81 8.6 1.95 18.63c-2.13 11.47-12.23 20.61-24.21 14.68-2.14-1.06-3.89-2.92-5.7-4.7q-.59-.57-.59.25V246q0 .5-.5.5h-6.5q-.5 0-.5-.5v-57.66a1.14 1.14 0 0 1 1.17-1.14l5.78.17q.55.02.55.57v4.56q0 .69.55.27Zm18.31 2.05c-6.89-6.93-16.21-1.13-18.14 7.63-1.42 6.48-.85 19.56 6.52 22.57 17.11 6.98 20.18-21.59 11.62-30.2ZM616 192.71a.39.38 63.9 0 0 .69.24c6.38-8.28 20.81-9.96 24.96 1.52a.43.43 0 0 0 .73.13c2.52-3 5.13-5.86 8.74-7.24 11.17-4.28 19.21 3.76 19.57 14.69q.19 5.68.01 27.97 0 .48-.48.48h-6.47q-.54 0-.54-.55.19-13.61-.19-27.19c-.49-17.51-19.68-11.76-19.78 2.68q-.09 12.25.06 24.51a.52.52 0 0 1-.52.53l-6.18.05a.96.96 0 0 1-.97-1q.58-14.09.07-28.52c-.43-12.22-14.92-11.18-18.72-1.4q-.92 2.36-.95 7.06-.06 11.69-.02 23.41 0 .48-.48.48l-6.42-.09q-.61 0-.61-.61v-41.98q0-.63.63-.63h6.24q.63 0 .63.62v4.84Z"/><rect width="7.5" height="43.24" x="537" y="187.26" fill="#672797" rx=".43"/><path fill="#672797" d="M586.1 225.17q-6.12 7.49-15.32 6.31c-9-1.17-12.41-9.76-12.28-18.02q.2-12.83.24-25.66 0-.55.55-.55h6.2q.52 0 .52.52-.06 12.34.1 24.67c.09 6.62 1.45 14.92 10.56 13.4q9.8-1.64 10.24-12.54.21-5.35.05-25.51 0-.54.54-.54h6.25q.5 0 .5.5v42.09q0 .66-.65.66h-5.85q-.75 0-.75-.75v-4.26a.51.51 0 0 0-.9-.32Z"/><ellipse fill="#fff" rx="17.27" ry="11.94" transform="rotate(90.1 123.897 332.267)"/><path fill="#fff" d="M495.22 202.45c1.93-8.76 11.25-14.56 18.14-7.63 8.56 8.61 5.49 37.18-11.62 30.2-7.37-3.01-7.94-16.09-6.52-22.57ZM397.36 211.04c4.3-2.85 12.8-2.24 17.52-1.95q.5.03.52.52.21 6.25-2.48 10.55c-8.92 14.26-27.7-1.1-15.56-9.12Z"/></svg>