<svg id="Layer_1" data-name="Layer 1" xmlns="http://www.w3.org/2000/svg" xmlns:xlink="http://www.w3.org/1999/xlink" viewBox="0 0 636.51 136.57"><defs><linearGradient id="linear-gradient" x1="199.28" y1="367.24" x2="96.34" y2="330.8" gradientTransform="matrix(1, 0, 0, -1, 0, 770)" gradientUnits="userSpaceOnUse"><stop offset="0" stop-color="#ee376d" stop-opacity="0"/><stop offset="0.14" stop-color="#e9376d" stop-opacity="0.06"/><stop offset="0.37" stop-color="#dc386e" stop-opacity="0.22"/><stop offset="0.68" stop-color="#c6396f" stop-opacity="0.48"/><stop offset="1" stop-color="#ac3b70" stop-opacity="0.8"/></linearGradient><linearGradient id="linear-gradient-2" x1="83.27" y1="337.29" x2="113.32" y2="438.32" gradientTransform="matrix(1, 0, 0, -1, 0, 770)" gradientUnits="userSpaceOnUse"><stop offset="0" stop-color="#65c9d3" stop-opacity="0"/><stop offset="1" stop-color="#65c9d3"/></linearGradient><linearGradient id="linear-gradient-3" x1="90.53" y1="420.31" x2="171.75" y2="420.31" gradientTransform="matrix(1, 0, 0, -1, 0, 770)" gradientUnits="userSpaceOnUse"><stop offset="0" stop-color="#ffcb04" stop-opacity="0"/><stop offset="0.1" stop-color="#ffcb04" stop-opacity="0.07"/><stop offset="0.31" stop-color="#ffcb04" stop-opacity="0.25"/><stop offset="0.59" stop-color="#ffcb04" stop-opacity="0.54"/><stop offset="0.95" stop-color="#ffcb04" stop-opacity="0.94"/><stop offset="1" stop-color="#ffcb04"/></linearGradient></defs><title>Appium logo - Brandlogos.net</title><g id="Layer_1-2" data-name="Layer 1"><path d="M260.59,348.45a117.78,117.78,0,0,0-20.85,2.27,2,2,0,0,0-1.65,2.21l.6,6.06a2,2,0,0,0,2.14,1.84l.3,0c5.35-1.07,11.69-2.32,17.83-2.32,10.28,0,14,3.76,14,15.54v2.89a51,51,0,0,0-11.91-1.26c-15,0-27.44,5.77-27.44,20.18s10,20.8,25.31,20.8a178.67,178.67,0,0,0,25.44-2.5V373.39C284.37,355.59,278,348.45,260.59,348.45Zm-.25,58.4c-9.15,0-14.91-2.76-14.91-11.15,0-7.77,7.14-10.66,16.67-10.66a48.16,48.16,0,0,1,10.9,1v19.8a74.46,74.46,0,0,1-12.63,1Zm101.89-24.13c0-20.18-10.78-34.09-34-34.09A94.54,94.54,0,0,0,304.79,352v84.3a2.05,2.05,0,0,0,2,2h7.56a2.05,2.05,0,0,0,2-2v-24a31.55,31.55,0,0,0,16.42,4.39C351.7,416.68,362.23,402.52,362.23,382.72Zm-12.16,0c0,14-5.76,23.68-18.67,23.68a24.73,24.73,0,0,1-14.91-5V360.28A44.57,44.57,0,0,1,328,359C341.93,359,350.07,367.55,350.07,382.72Zm87.48,0c0-20.18-10.77-34.09-34-34.09A94.37,94.37,0,0,0,380.12,352v84.3a2,2,0,0,0,1.95,2h7.61a2,2,0,0,0,2-2v-24a31.55,31.55,0,0,0,16.42,4.39C427,416.68,437.55,402.52,437.55,382.72Zm-12.15,0c0,14-5.77,23.68-18.68,23.68a24.73,24.73,0,0,1-14.91-5V360.28A44.57,44.57,0,0,1,403.37,359c13.88,0,22,8.52,22,23.69Zm35.84-45.5a8.27,8.27,0,1,0-8.14-8.4s0,.09,0,.13a7.93,7.93,0,0,0,7.58,8.27h.56ZM465.09,350h-7.57a2,2,0,0,0-2,2v61.08a2,2,0,0,0,2,2h7.57a2,2,0,0,0,2-2v-61a2,2,0,0,0-2-2h0Zm77.61,2.11v61.62c-5.39,1.25-14.28,2.88-28.32,2.88-18.55,0-26.82-10.65-26.82-30v-34.5a2,2,0,0,1,2-2h7.56a2,2,0,0,1,2,2v32c0,15.91,4.51,22.18,16.41,22.18A119.66,119.66,0,0,0,531,405V352a2,2,0,0,1,2-2h7.57a2,2,0,0,1,2.18,2.08Zm20.43,61V351.89a141.55,141.55,0,0,1,29.58-3.26c8.4,0,13.79,2.25,16.92,5.51,8.14-3.13,16.54-5.51,25.31-5.51,17.8,0,24.32,10.53,24.32,30v34.55a2,2,0,0,1-2,2h-7.61a2,2,0,0,1-2-2v-32c0-14.16-1.88-22.18-13.91-22.18-7.9,0-16.79,2.75-18.8,4.26a49.09,49.09,0,0,1,2.13,15.41v34.55a2,2,0,0,1-2,2h-7.7a2,2,0,0,1-2-2v-32c0-14.41-2.38-22.18-13.91-22.18-4.26,0-12.54.37-16.67,1.25v53a2,2,0,0,1-2,2h-7.61a2,2,0,0,1-2-2.16Z" transform="translate(-65.74 -315.72)" style="fill:#ed366d"/><path d="M684.43,350.94v3h-3.84v9.65h-3.44v-9.65h-3.84v-3Zm16.79,0c.22,1.31.4,3,.54,5s.3,4.58.5,7.71H699c-.05-1.31-.12-2.71-.2-4.21s-.16-2.89-.26-4.14c-.3.49-.62,1.06-1,1.7s-.67,1.27-1,1.9-.62,1.22-.89,1.77-.48,1-.63,1.32h-1.92c-.15-.33-.36-.76-.63-1.3s-.57-1.13-.9-1.75-.67-1.27-1-1.91l-.92-1.73q-.16,1.88-.27,4.14c-.08,1.5-.14,2.9-.19,4.21H685.9c.24-3.13.45-5.7.61-7.71s.34-3.66.53-5h3.46c.44.89,1,2,1.62,3.22s1.28,2.55,1.92,3.88c.67-1.33,1.33-2.63,2-3.88s1.21-2.33,1.62-3.22Z" transform="translate(-65.74 -315.72)" style="fill:#ed366d"/><path d="M166.37,378q-1.23,2.92-2.73,5.7A68.18,68.18,0,0,0,119,358.19a70.1,70.1,0,0,0-9-.58,68,68,0,0,0-43.5,15.65,68.3,68.3,0,0,1,91.56-53.14,71.48,71.48,0,0,1,7.77,3.51v0a69.89,69.89,0,0,1,3.56,10.08A67.94,67.94,0,0,1,166.37,378Z" transform="translate(-65.74 -315.72)" style="fill:#fdbb11"/><path d="M158.09,447.86a68.29,68.29,0,0,1-91.57-53.21,66.24,66.24,0,0,1-.75-7.24h0a68,68,0,0,1,38-26.39,69.74,69.74,0,0,1,8.84-1.75c2.09-.28,4.16-.45,6.22-.53A68.27,68.27,0,0,0,157,447.45l1.15.45Z" transform="translate(-65.74 -315.72)" style="fill:#61c3da"/><path d="M202.22,384a68.12,68.12,0,0,1-24.77,52.61,50.56,50.56,0,0,1-7,5.06,68.78,68.78,0,0,1-47.74-26.75q-1.9-2.5-3.57-5.21A68.25,68.25,0,0,0,177.7,333q-.11-.79-.23-1.58A68.15,68.15,0,0,1,202.22,384Z" transform="translate(-65.74 -315.72)" style="fill:#ed366d"/><path d="M202.21,384a68.11,68.11,0,0,1-24.76,52.61,52.07,52.07,0,0,1-7,5.06,68.78,68.78,0,0,1-47.74-26.75c-1.27-1.67-2.46-3.41-3.58-5.2a68.28,68.28,0,0,0,82.24-36.32v-.08A68.63,68.63,0,0,1,202.21,384Z" transform="translate(-65.74 -315.72)" style="fill:url(#linear-gradient)"/><path d="M97.42,405a68.38,68.38,0,0,0,12.49,42.88,68.17,68.17,0,0,1-44.17-61.07v.55a68.37,68.37,0,0,1,46.8-28.14c2.08-.28,4.15-.45,6.22-.53A68.44,68.44,0,0,0,97.37,405Z" transform="translate(-65.74 -315.72)" style="fill:#61c3da"/><path d="M97.42,405a68.38,68.38,0,0,0,12.49,42.88,68.17,68.17,0,0,1-44.17-61.07v.55a68.37,68.37,0,0,1,46.8-28.14c2.08-.28,4.15-.45,6.22-.53A68.44,68.44,0,0,0,97.37,405Z" transform="translate(-65.74 -315.72)" style="fill:url(#linear-gradient-2)"/><path d="M166.37,378q-1.23,2.91-2.73,5.69A68.25,68.25,0,0,0,90.53,331.3a68.2,68.2,0,0,1,75.3-7.66h0a69.89,69.89,0,0,1,3.56,10.08A68,68,0,0,1,166.37,378Z" transform="translate(-65.74 -315.72)" style="fill:url(#linear-gradient-3)"/></g></svg>